<svg width="18" height="18" viewBox="0 0 18 18" fill="none" xmlns="http://www.w3.org/2000/svg">
<g clip-path="url(#clip0_704_6822)">
<path d="M6.01684 3.37794V12.3645C5.44473 11.8439 4.68489 11.5262 3.85239 11.5262C2.07714 11.5262 0.632845 12.9705 0.632845 14.7458C0.632845 16.521 2.07714 17.9653 3.85239 17.9653C5.62545 17.9653 7.0681 16.5246 7.07181 14.7525H7.07194V8.331L16.3178 5.55255V10.1985C15.7457 9.67806 14.9858 9.36028 14.1533 9.36028C12.3781 9.36028 10.9338 10.8046 10.9338 12.5798C10.9338 14.3551 12.3781 15.7994 14.1533 15.7994C15.9225 15.7994 17.3629 14.3648 17.3726 12.5978H17.3729V-0.0346934L6.01684 3.37794Z" fill="white"/>
</g>
<defs>
<clipPath id="clip0_704_6822">
<rect width="17.7335" height="17.7335" fill="white" transform="scale(1.01503)"/>
</clipPath>
</defs>
</svg>
