<svg width="24" height="24" viewBox="0 0 24 24" fill="none" xmlns="http://www.w3.org/2000/svg">
<path d="M11.9999 2.24995C6.62385 2.24995 2.24995 6.62385 2.24995 11.9999C2.24995 17.376 6.62385 21.7499 11.9999 21.7499C17.376 21.7499 21.7499 17.376 21.7499 11.9999C21.7499 6.62385 17.376 2.24995 11.9999 2.24995ZM13.4999 16.4999H10.4999C10.301 16.4999 10.1103 16.4209 9.9696 16.2803C9.82895 16.1396 9.74993 15.9488 9.74993 15.7499C9.74993 15.551 9.82895 15.3602 9.9696 15.2196C10.1103 15.0789 10.301 14.9999 10.4999 14.9999H13.4999C13.6988 14.9999 13.8896 15.0789 14.0303 15.2196C14.1709 15.3602 14.2499 15.551 14.2499 15.7499C14.2499 15.9488 14.1709 16.1396 14.0303 16.2803C13.8896 16.4209 13.6988 16.4999 13.4999 16.4999ZM15.7499 13.4999H8.24994C8.05102 13.4999 7.86026 13.4209 7.71961 13.2803C7.57896 13.1396 7.49994 12.9488 7.49994 12.7499C7.49994 12.551 7.57896 12.3603 7.71961 12.2196C7.86026 12.0789 8.05102 11.9999 8.24994 11.9999H15.7499C15.9488 11.9999 16.1396 12.0789 16.2803 12.2196C16.4209 12.3603 16.4999 12.551 16.4999 12.7499C16.4999 12.9488 16.4209 13.1396 16.2803 13.2803C16.1396 13.4209 15.9488 13.4999 15.7499 13.4999ZM17.2499 10.4999H6.74994C6.55103 10.4999 6.36026 10.4209 6.21961 10.2803C6.07896 10.1396 5.99994 9.94885 5.99994 9.74993C5.99994 9.55102 6.07896 9.36026 6.21961 9.2196C6.36026 9.07895 6.55103 8.99994 6.74994 8.99994H17.2499C17.4488 8.99994 17.6396 9.07895 17.7803 9.2196C17.9209 9.36026 17.9999 9.55102 17.9999 9.74993C17.9999 9.94885 17.9209 10.1396 17.7803 10.2803C17.6396 10.4209 17.4488 10.4999 17.2499 10.4999Z" fill="#A29EF0"/>
</svg>
