<svg width="18" height="18" viewBox="0 0 18 18" fill="none" xmlns="http://www.w3.org/2000/svg">
<g clip-path="url(#clip0_704_6829)">
<path d="M8.43647 2.40934C8.31901 1.6359 8.0815 0.852972 7.73553 0.0879726C5.9389 0.340605 4.31271 1.1235 3.02012 2.2736L7.48567 6.73918C8.35814 5.62962 8.69536 4.1141 8.43647 2.40934Z" fill="white"/>
<path d="M7.49033 8.23424C6.42383 9.11483 5.05168 9.57488 3.51004 9.57492C3.1016 9.57492 2.68141 9.54265 2.25173 9.47743C1.50107 9.36342 0.744407 9.14956 0.00183648 8.84444C0.00102789 8.8956 -6.19525e-05 8.94671 -6.19525e-05 8.99808C-6.19525e-05 11.2936 0.859825 13.388 2.27441 14.9778L8.25417 8.99808L7.49033 8.23424Z" fill="white"/>
<path d="M6.74005 7.48338L2.27447 3.01783C1.12437 4.31042 0.341473 5.93657 0.0888399 7.7332C0.853875 8.07917 1.63684 8.31676 2.41017 8.43421C4.11504 8.69314 5.63052 8.35585 6.74005 7.48338Z" fill="white"/>
<path d="M15.5898 9.56224C13.885 9.30328 12.3695 9.64057 11.2599 10.513L15.7255 14.9786C16.8756 13.686 17.6585 12.0598 17.9111 10.2632C17.1462 9.91728 16.3633 9.67973 15.5898 9.56224Z" fill="white"/>
<path d="M9.76355 10.5085L8.99988 9.74489L3.02012 15.7246C4.61 17.1393 6.70436 17.9991 8.99988 17.9991C9.05125 17.9991 9.10236 17.998 9.15352 17.9972C8.84843 17.2546 8.63454 16.4979 8.52053 15.7473C8.20905 13.6959 8.64966 11.8576 9.76355 10.5085Z" fill="white"/>
<path d="M8.23622 7.48908L8.99988 8.25274L14.9796 2.27298C13.3898 0.858365 11.2954 -0.00148686 8.99988 -0.00148686C8.94852 -0.00148686 8.8974 -0.000397017 8.84625 0.000446733C9.15134 0.742982 9.36523 1.49958 9.47924 2.25034C9.79072 4.30174 9.35011 6.14006 8.23622 7.48908Z" fill="white"/>
<path d="M9.56308 15.5884C9.6805 16.3617 9.91812 17.1447 10.2641 17.9097C12.0607 17.6571 13.6868 16.8742 14.9794 15.7241L10.5138 11.2585C9.64141 12.3681 9.30419 13.8836 9.56308 15.5884Z" fill="white"/>
<path d="M10.5096 9.76129C11.8586 8.64737 13.6969 8.20679 15.7483 8.51827C16.4991 8.63228 17.2557 8.84621 17.9982 9.15126C17.9991 9.10011 18.0002 9.04899 18.0002 8.99759C18.0002 6.70207 17.1403 4.6077 15.7257 3.01783L9.74594 8.99763L10.5096 9.76129Z" fill="white"/>
</g>
<defs>
<clipPath id="clip0_704_6829">
<rect width="17.7335" height="17.7335" fill="white" transform="scale(1.01503)"/>
</clipPath>
</defs>
</svg>
