<svg width="107" height="112" viewBox="0 0 107 112" fill="none" xmlns="http://www.w3.org/2000/svg">
<path d="M67.7196 42.6428L53.6711 61.3274L60.5456 65.3992L67.7196 42.6428Z" fill="#00B6AA"/>
<path d="M84.7504 75.1813L81.8312 111.926H63.0413L67.2624 95.0523L61.0344 95.0075L53.9077 112H36.3386L54.0451 74.2971" fill="#171766"/>
<path d="M67.7196 42.6431L53.6711 76.3031C53.6711 76.3031 77.475 84.7421 90.8162 77.7312L86.2572 43.2698L67.7196 42.6431Z" fill="#171766"/>
<path d="M82.8944 34.4858L74.6325 35.4976L74.1572 40.8364C76.7948 40.3081 79.4369 39.8 82.0926 39.3344L82.8944 34.4858Z" fill="#171766"/>
<path d="M83.4147 43.0816L82.775 49.7165L76.6258 56.0962L75.6235 57.137L75.351 56.4543L72.5354 49.4165L72.7561 42.2937H80.7568L83.4147 43.0816Z" fill="white"/>
<path d="M74.1593 40.8364L73.925 43.4689L77.4344 47.1131L81.3671 43.7599L82.0969 39.3367C79.4368 39.8 76.7947 40.3082 74.1593 40.8364Z" fill="#F2583E"/>
<path d="M87.7531 29.5599C88.624 24.3012 85.0405 19.3365 79.7489 18.471C74.4574 17.6055 69.4618 21.1668 68.5909 26.4255C67.7199 31.6842 71.3035 36.6489 76.595 37.5144C81.8866 38.38 86.8822 34.8186 87.7531 29.5599Z" fill="#F2583E"/>
<path d="M82.3981 33.0678C82.5935 31.8756 81.7793 30.7519 80.5798 30.5578C79.3802 30.3637 78.2494 31.1727 78.0541 32.3649C77.8588 33.557 78.6729 34.6808 79.8725 34.8749C81.072 35.069 82.2028 34.2599 82.3981 33.0678Z" fill="#F6EF97"/>
<path d="M75.5266 18.7983C74.5715 18.87 73.6143 18.9416 72.657 19.0132C72.4002 19.0334 72.1367 19.0535 71.9047 19.1632C71.6727 19.2729 71.4744 19.4967 71.4722 19.7519C71.4699 20.0295 71.6839 20.2578 71.9069 20.4235C72.5714 20.9204 73.4431 21.1398 74.2652 21.0144C73.9476 21.4465 73.2606 21.7106 73.3169 22.2434C73.3597 22.6508 73.835 22.8545 74.2427 22.9149C74.9522 23.0201 75.6865 22.944 76.3577 22.6933C76.2474 23.1096 76.1437 23.5752 76.3555 23.9491C76.565 24.3229 77.0245 24.4841 77.4547 24.5378C79.0922 24.7415 80.6396 23.8439 82.0587 23.0067C82.2389 22.8992 82.4821 22.7963 82.642 22.9306C82.7344 23.0067 82.7592 23.132 82.7772 23.2507C83.034 24.9251 82.6421 26.6263 82.6533 28.3186C82.6578 29.1602 82.802 30.078 83.4259 30.6466C83.8922 31.0719 84.5499 31.2241 85.1806 31.2823C85.8225 31.3405 86.5005 31.3114 87.0613 30.9958C87.4285 30.7899 87.7213 30.472 87.9713 30.134C88.7935 29.0192 89.1967 27.5597 88.8498 26.2211C88.7349 25.7801 88.5367 25.3481 88.2101 25.028" fill="#00B6AA"/>
<path d="M86.8452 35.4975C88.8592 35.4975 90.4919 33.8749 90.4919 31.8734C90.4919 29.8718 88.8592 28.2493 86.8452 28.2493C84.8312 28.2493 83.1985 29.8718 83.1985 31.8734C83.1985 33.8749 84.8312 35.4975 86.8452 35.4975Z" fill="#F2583E"/>
<path d="M90.0459 18.7471L89.4873 20.9901L88.5458 24.7574L75.5042 18.7471L77.3309 16.6608L79.741 13.9053C79.741 13.9053 86.3091 14.3798 90.0459 18.7471Z" fill="#171766"/>
<path d="M89.4873 20.9901L88.5458 24.7575L75.5042 18.7471L77.3309 16.6609L89.4873 20.9901Z" fill="#00B6AA"/>
<path d="M72.389 16.1997L93.4223 26.0177C93.4223 26.0177 91.6001 29.747 79.741 23.3293C71.6029 18.9262 72.389 16.1997 72.389 16.1997Z" fill="#171766"/>
<path d="M69.9044 24.0164C69.9044 24.0164 68.7557 26.5257 70.5238 27.0943C72.292 27.6628 73.7245 25.4647 73.7245 25.4647C73.7245 25.4647 71.5892 27.0987 70.4811 26.1675C69.6612 25.4803 69.9044 24.0164 69.9044 24.0164Z" fill="#171766"/>
<path d="M76.7069 26.9399C76.7069 26.9399 75.5582 29.4493 77.3263 30.0178C79.0945 30.5864 80.5271 28.3882 80.5271 28.3882C80.5271 28.3882 78.3918 30.0223 77.2835 29.0911C76.4614 28.4039 76.7069 26.9399 76.7069 26.9399Z" fill="#171766"/>
<path d="M75.7158 24.3521L71.4722 28.2L73.594 29.7871L76.146 24.7572L75.7158 24.3521Z" fill="#FFB459"/>
<path d="M84.9983 33.3309L84.7505 30.797L88.7463 29.4517V30.112L85.4285 31.1619L86.1042 33.5749L84.9983 33.3309Z" fill="#171766"/>
<path d="M77.4345 47.1111L75.2158 49.081L72.1277 41.9358L74.1594 40.8367L77.4345 47.1111Z" fill="#00B6AA"/>
<path d="M78.9029 49.7162L77.4343 47.1106L81.759 41.3667L84.0182 43.1217L78.9029 49.7162Z" fill="#00B6AA"/>
<path d="M77.9749 47.1111L76.6257 56.0963L75.6234 57.1372L75.3508 56.4545L77.0582 47.1111H77.9749Z" fill="#00B6AA"/>
<path d="M71.7085 34.3561C71.7085 34.3561 67.0573 34.8777 64.9647 36.8162C64.1539 37.5705 63.6245 40.5611 63.0321 44.9396C63.0299 44.9463 63.0299 44.953 63.0276 44.9598C62.0929 51.8543 60.9892 62.1736 58.3448 72.6161C54.0134 89.7069 43.258 95.8225 43.258 95.8225C35.8272 95.4665 30.3402 93.7474 26.3151 91.2358C15.5529 84.5226 15.2489 72.1528 16.2242 65.0814C14.7826 62.1222 15.2826 57.8265 15.4065 57.7929C21.5174 56.2014 27.7522 59.2592 32.4305 62.684C34.068 63.8838 35.5163 65.1284 36.6989 66.232C38.5751 67.9847 39.7937 69.386 40.0663 69.7017V69.7039C40.1045 69.7487 40.1226 69.771 40.1226 69.771L36.4669 73.4489L38.181 77.2789C38.181 77.2789 59.3291 37.0176 63.0344 34.1121C68.7466 31.8736 70.6094 32.3638 70.6094 32.3638L71.7085 34.3561Z" fill="#F6EF97"/>
<path d="M56.8891 48.539C57.7899 47.6439 57.7899 46.1925 56.8891 45.2974C55.9884 44.4022 54.528 44.4022 53.6273 45.2974C52.7265 46.1925 52.7265 47.6439 53.6273 48.539C54.528 49.4342 55.9884 49.4342 56.8891 48.539Z" fill="#FFB459"/>
<path d="M60.0202 43.6391C60.921 42.744 60.921 41.2926 60.0202 40.3975C59.1195 39.5023 57.6591 39.5023 56.7584 40.3975C55.8576 41.2926 55.8576 42.744 56.7584 43.6391C57.6591 44.5343 59.1195 44.5343 60.0202 43.6391Z" fill="#FFB459"/>
<path d="M54.426 52.5804C54.7173 51.348 53.9482 50.1142 52.7081 49.8247C51.468 49.5352 50.2265 50.2996 49.9352 51.532C49.6439 52.7644 50.413 53.9981 51.6531 54.2877C52.8932 54.5772 54.1346 53.8128 54.426 52.5804Z" fill="#FFB459"/>
<path d="M51.3521 57.7301C51.6461 56.4983 50.8797 55.2629 49.6402 54.9708C48.4008 54.6786 47.1576 55.4403 46.8636 56.672C46.5696 57.9038 47.3361 59.1392 48.5755 59.4314C49.815 59.7236 51.0581 58.9619 51.3521 57.7301Z" fill="#FFB459"/>
<path d="M48.2784 62.8705C48.5724 61.6387 47.8059 60.4033 46.5665 60.1112C45.327 59.819 44.0839 60.5807 43.7899 61.8124C43.4959 63.0442 44.2623 64.2796 45.5018 64.5718C46.7412 64.8639 47.9844 64.1023 48.2784 62.8705Z" fill="#FFB459"/>
<path d="M45.2011 68.0003C45.4924 66.7679 44.7233 65.5342 43.4832 65.2447C42.2431 64.9551 41.0017 65.7195 40.7104 66.9519C40.419 68.1843 41.1882 69.4181 42.4282 69.7076C43.6683 69.9971 44.9098 69.2327 45.2011 68.0003Z" fill="#FFB459"/>
<path d="M59.0183 37.66L65.0391 40.1627L66.3455 38.9113L59.9351 36.261" fill="#F2583E"/>
<path d="M63.0277 44.96C62.0929 51.8545 60.9892 62.1738 58.3448 72.6163C54.0134 89.7071 43.258 95.8226 43.258 95.8226C43.258 95.8226 37.0773 93.9222 34.6401 91.236L42.6183 92.5231C42.6183 92.5231 60.7257 58.843 63.0277 44.96Z" fill="#FFB459"/>
<path d="M32.4306 62.6841C30.2615 65.3367 28.3965 68.2288 27.045 71.3671C25.2115 75.6247 24.8489 80.8896 25.1529 85.5098C25.2813 87.4573 25.6778 89.3891 26.3175 91.2359C15.5553 84.5227 15.2512 72.1528 16.2265 65.0815C14.7827 62.1222 15.285 57.8266 15.4066 57.793C21.5198 56.2014 27.7523 59.2592 32.4306 62.6841Z" fill="#FFB459"/>
<path d="M40.0662 69.7014L36.4668 73.4486C19.0554 74.3664 17.1836 61.269 17.1836 61.269L28.1507 62.2137L36.6965 66.2318C38.575 67.9845 39.7936 69.3858 40.0662 69.7014Z" fill="#FFB459"/>
<path d="M40.1225 69.771C21.7877 75.2799 15.4065 57.7929 15.4065 57.7929C27.5291 54.6344 40.1225 69.771 40.1225 69.771Z" fill="#171766"/>
<path d="M69.8662 30.5283L71.1659 35.5403L72.3394 35.0903L71.5555 30.5283H69.8662Z" fill="#171766"/>
<path d="M72.7246 30.8999L70.801 31.6811L71.4317 33.6846L73.5783 34.0786L72.7246 30.8999Z" fill="#171766"/>
<path d="M22.8758 39.1868C16.0441 49.0607 24.0515 59.313 29.7637 68.0318C28.9416 67.949 28.1217 67.799 27.4054 67.5326C24.68 66.5276 11.3005 55.221 13.4178 44.6241C14.1813 40.7895 16.0779 37.2998 17.4519 33.6376C18.8259 29.9732 19.434 25.6104 17.2649 22.349C16.4788 21.1648 15.3864 20.2224 14.33 19.2711C11.573 16.7931 8.91738 14.089 7.27535 10.776C5.63332 7.46085 5.12427 3.42039 6.70999 0.0783467L13.5799 0H27.0428C25.3985 3.20774 25.3129 7.08926 27.6059 10.7581C30.0836 14.3397 33.0118 17.2497 32.5613 21.7267C31.8855 28.6659 26.7049 33.3668 22.8758 39.1868Z" fill="#00B6AA"/>
<path d="M62.2934 15.0112C55.9866 17.2497 46.9768 17.6974 46.3011 25.7559C45.8506 31.1283 46.3011 37.396 41.1205 40.5299C37.0661 42.7684 32.3359 44.1114 30.3087 48.3646C27.6959 54.5293 28.6374 62.1043 32.0093 68.1102C31.3201 68.1258 30.5407 68.1102 29.7636 68.0318C24.0515 59.313 16.044 49.0607 22.8757 39.1868C26.7048 33.3668 31.8854 28.6659 32.5612 21.7267C33.0117 17.2497 30.0835 14.3397 27.6058 10.7581C25.3128 7.08926 25.3984 3.20774 27.0427 0H70.8122C71.1725 6.23192 68.2579 12.8556 62.2934 15.0112Z" fill="#7BD6AA"/>
<path d="M97.6906 0C96.6071 3.38682 95.3525 6.74677 93.3659 9.69485C91.19 12.9205 88.0208 15.6425 84.2187 16.5468C81.8852 17.102 79.448 16.9542 77.056 17.1423C74.6639 17.3303 72.1501 17.9369 70.4878 19.6561C68.6183 21.5856 68.1858 24.527 66.4514 26.5752C62.8228 30.8686 55.4302 29.4807 51.1641 33.1496C46.6277 37.049 47.2877 45.2128 42.1138 48.2325C40.0844 49.4166 31.2458 51.4357 31.0431 57.2894C30.8764 62.1289 34.3789 67.9355 34.3789 67.9355C34.3789 67.9355 33.3653 68.0788 32.0093 68.1102C28.6374 62.1043 27.6959 54.5293 30.3088 48.3645C32.336 44.1114 37.0661 42.7683 41.1205 40.5299C46.3011 37.396 45.8506 31.1283 46.3011 25.7559C46.9768 17.6974 55.9866 17.2497 62.2934 15.0112C68.2579 12.8556 71.1726 6.23192 70.8122 0H97.6906Z" fill="#00B6AA"/>
<path d="M98.9948 73.4937C98.1411 78.3199 94.2444 82.8931 88.5007 85.9867C81.6893 89.6555 72.2808 91.2426 62.2777 88.7019C60.4443 88.2363 58.5905 87.6319 56.73 86.8753L64.1923 66.5119C65.5978 66.8119 67.0799 67.1029 68.5778 67.3558C75.4162 68.5131 82.6263 68.8959 84.7503 66.0038C89.1133 60.0673 84.7503 49.0831 84.7503 49.0831C84.7503 49.0831 82.7412 46.6364 86.2572 43.2698C86.2572 43.2698 97.7289 56.0313 99.1097 68.1885C99.3146 69.9838 99.3011 71.7678 98.9948 73.4937Z" fill="#00B6AA"/>
<path d="M60.2123 65.1889L59.0185 57.3587L57.5656 56.7252L56.498 61.7484L49.8465 56.5193L48.7338 58.1041L52.1823 62.8833L46.8012 61.1955L45.5466 63.7854L51.8354 67.4789L43.4653 67.358L42.9563 69.3905L61.111 76.6208L64.7487 69.3905L60.2123 65.1889Z" fill="#F1573D"/>
<path d="M43.4653 69.122L43.7244 67.479C43.7244 67.479 45.265 67.9401 45.1119 68.7706C44.961 69.6011 43.4653 69.122 43.4653 69.122Z" fill="#171766"/>
<path d="M46.4497 63.3868L47.1885 61.7773C47.1885 61.7773 49.0625 62.91 48.8328 63.689C48.6076 64.468 46.4497 63.3868 46.4497 63.3868Z" fill="#171766"/>
<path d="M49.3398 58.1802L50.0989 57.1997C50.0989 57.1997 51.973 58.6323 51.313 59.2748C50.6575 59.915 49.3398 58.1802 49.3398 58.1802Z" fill="#171766"/>
<path d="M57.845 57.4753L59.059 57.8536C59.059 57.8536 59.3631 60.0921 58.7054 59.9422C58.0477 59.7899 57.845 57.4753 57.845 57.4753Z" fill="#171766"/>
<path d="M69.5373 64.101L68.5778 67.3558L62.2777 88.7019L61.1492 92.523L55.8042 89.3981L56.73 86.8753L64.1923 66.5119L65.5235 62.8833L69.5373 64.101Z" fill="white"/>
<path d="M98.9949 73.4939C98.1412 78.3201 94.2445 82.8933 88.5007 85.9868C87.2641 83.2649 87.0299 80.0907 87.9264 77.2344C89.2575 72.9858 93.0079 69.6549 97.3303 68.4932C97.9002 68.3387 98.5061 68.229 99.1097 68.1887C99.3147 69.984 99.3012 71.768 98.9949 73.4939Z" fill="#FFB459"/>
<path d="M49.1076 53.0744L43.7266 49.5958L50.8713 36.7805L55.8041 37.6602L49.1076 53.0744Z" fill="white"/>
<path d="M50.5469 39.2003L58.453 38.2131L59.4621 39.4309L54.8896 41.8171L61.7596 46.7574L60.5275 48.2527L54.9639 46.2515L58.0588 50.9411L55.8942 52.8438L50.6077 47.8319L52.9998 55.8053L51.1686 56.844L45.5825 49.6361" fill="#F1573D"/>
<path d="M51.2902 56.2843L52.8106 55.5881C52.8106 55.5881 51.9456 54.2406 51.1843 54.6122C50.4207 54.9838 51.2902 56.2843 51.2902 56.2843Z" fill="#171766"/>
<path d="M56.0338 51.8727L57.392 50.7289C57.392 50.7289 55.786 49.2448 55.0945 49.6745C54.4008 50.1043 56.0338 51.8727 56.0338 51.8727Z" fill="#171766"/>
<path d="M60.2909 47.691L61.0342 46.6972C61.0342 46.6972 59.1377 45.2959 58.6939 46.0995C58.2525 46.9053 60.2909 47.691 60.2909 47.691Z" fill="#171766"/>
<path d="M58.6602 39.3659L57.9642 38.3071C57.9642 38.3071 55.714 38.625 56.0383 39.2137C56.3649 39.8024 58.6602 39.3659 58.6602 39.3659Z" fill="#171766"/>
<path d="M2.66239 86.7856L10.1833 90.6805L15.5531 79.5889L13.1588 98.354L7.78894 95.0299L0 108.344L2.66239 86.7856Z" fill="#FFB459"/>
<path d="M21.4275 90.7996L24.3917 102.717L17.4722 104.369L22.4996 110.388V105.195L30.0138 104.723L21.4275 90.7996Z" fill="#F6EF97"/>
<path d="M39.6587 61.3277L48.7 54.8965L46.6908 52.123L39.6587 61.3277Z" fill="#00B6AA"/>
<path d="M35.6179 59.2747L40.3548 44.3777L37.109 44.9597L35.6179 59.2747Z" fill="#F1573D"/>
<path d="M13.1588 56.7255L2.41919 50.5204L5.60414 45.9897L13.1588 56.7255Z" fill="#00B6AA"/>
<path d="M10.2215 44.9598L3.11279 29.4516L9.29575 26.179L10.2215 44.9598Z" fill="#F6EF97"/>
<path d="M10.7622 59.2749L1.10596 63.5728L2.8043 66.4918L10.7622 59.2749Z" fill="#F1573D"/>
<path d="M95.0148 32.7151L99.2471 38.4971L106.119 30.8997L101.184 45.9892L94.6611 38.4456L87.3857 42.0182L95.0148 32.7151Z" fill="#FFB459"/>
<path d="M91.6653 45.9897C91.6653 45.9897 103.123 56.9247 103.299 56.0002C103.475 55.0757 106.119 52.1232 106.119 52.1232L91.6653 45.9897Z" fill="#171766"/>
<path d="M96.7515 30.528L107 19.3311L103.651 16.6606L96.7515 30.528Z" fill="#171766"/>
<path d="M86.7483 89.9421L101.876 106.767L107 99.9347L86.7483 89.9421Z" fill="#FFB459"/>
<path d="M90.8162 88.899L104.885 91.236V86.9717L90.8162 88.899Z" fill="#F6EF97"/>
<path d="M85.4958 95.03L86.8451 108.345L94.4854 106.766L85.4958 95.03Z" fill="#F6EF97"/>
<path d="M8.60439 77.3528C8.60439 78.1363 7.96469 78.772 7.17634 78.772C6.38798 78.772 5.74829 78.1363 5.74829 77.3528C5.74829 76.5693 6.38798 75.9336 7.17634 75.9336C7.96469 75.9358 8.60439 76.5693 8.60439 77.3528Z" fill="#7BD6AA"/>
<path d="M99.9678 83.0163C100.921 83.0163 101.693 82.2486 101.693 81.3016C101.693 80.3546 100.921 79.5869 99.9678 79.5869C99.0149 79.5869 98.2424 80.3546 98.2424 81.3016C98.2424 82.2486 99.0149 83.0163 99.9678 83.0163Z" fill="#171766"/>
<path d="M99.9679 61.5694C101.137 61.5694 102.085 60.6273 102.085 59.4653C102.085 58.3032 101.137 57.3611 99.9679 57.3611C98.7985 57.3611 97.8506 58.3032 97.8506 59.4653C97.8506 60.6273 98.7985 61.5694 99.9679 61.5694Z" fill="#7BD6AA"/>
<path d="M96.1679 14.9866C97.0972 14.9866 97.8505 14.238 97.8505 13.3145C97.8505 12.391 97.0972 11.6423 96.1679 11.6423C95.2387 11.6423 94.4854 12.391 94.4854 13.3145C94.4854 14.238 95.2387 14.9866 96.1679 14.9866Z" fill="#FFB459"/>
<path d="M7.725 19.0574C8.02173 17.8085 7.24355 16.557 5.9869 16.2621C4.73024 15.9672 3.47098 16.7406 3.17424 17.9895C2.87751 19.2383 3.65568 20.4898 4.91234 20.7847C6.16899 21.0796 7.42826 20.3062 7.725 19.0574Z" fill="#FFB459"/>
<path d="M52.2026 34.4857C53.1991 34.4857 54.0069 33.6829 54.0069 32.6927C54.0069 31.7024 53.1991 30.8997 52.2026 30.8997C51.2062 30.8997 50.3984 31.7024 50.3984 32.6927C50.3984 33.6829 51.2062 34.4857 52.2026 34.4857Z" fill="#FFB459"/>
<path d="M11.4918 68.8675C12.0318 67.5978 11.4338 66.1335 10.1562 65.5968C8.87859 65.0602 7.40515 65.6545 6.86517 66.9242C6.32519 68.1939 6.92316 69.6582 8.20077 70.1948C9.47838 70.7314 10.9518 70.1372 11.4918 68.8675Z" fill="#171766"/>
<path d="M34.8543 101.309C35.6753 101.309 36.3409 100.648 36.3409 99.8319C36.3409 99.016 35.6753 98.3545 34.8543 98.3545C34.0333 98.3545 33.3677 99.016 33.3677 99.8319C33.3677 100.648 34.0333 101.309 34.8543 101.309Z" fill="#FFB459"/>
<path d="M13.4561 104.664C14.4314 104.664 15.222 103.879 15.222 102.91C15.222 101.94 14.4314 101.155 13.4561 101.155C12.4808 101.155 11.6902 101.94 11.6902 102.91C11.6902 103.879 12.4808 104.664 13.4561 104.664Z" fill="#7BD6AA"/>
</svg>
