<svg width="48" height="51" viewBox="0 0 48 51" fill="none" xmlns="http://www.w3.org/2000/svg">
<path d="M45.3359 30.1886L45.4352 30.2383C47.744 31.5293 48.6378 34.4339 47.4213 36.7676C43.2008 44.8361 34.7103 50.3475 24.9536 50.273C11.3488 50.1737 0.201861 39.1012 0.00325148 25.4965C-0.220184 11.4449 11.1006 0 25.1274 0C33.0469 0 40.1224 3.67428 44.7152 9.40913L35.7281 14.2751C32.8483 11.4697 28.8513 9.78152 24.4819 9.9553C16.463 10.278 10.0082 16.9066 9.9089 24.9503C9.8096 33.4409 16.6616 40.3426 25.1025 40.3426C30.9615 40.3426 36.0509 37.0407 38.5832 32.1747C39.8741 29.7418 42.9277 28.848 45.3359 30.1886Z" fill="#5669FF"/>
<path d="M47.4958 13.6791C48.6129 15.8638 47.8185 18.5451 45.6586 19.7367L40.1472 22.7903L26.4928 30.3623C24.3578 31.554 21.6765 30.9582 20.2366 28.9721L20.187 28.8976C18.4739 26.5391 19.2187 23.1876 21.8007 21.7973L35.753 14.2501L44.7401 9.3842C45.7828 10.7248 46.7013 12.1647 47.4958 13.6791Z" fill="#00F8FF"/>
</svg>
