<svg width="26" height="27" viewBox="0 0 26 27" fill="none" xmlns="http://www.w3.org/2000/svg">
<path d="M13.2602 5.12765C15.1602 5.09842 16.9976 5.80624 18.3869 7.10258L22.1289 3.44341C19.7281 1.19377 16.5501 -0.039807 13.2602 0.000980134C10.8021 0.000412152 8.39236 0.683647 6.30037 1.97428C4.20839 3.26491 2.51668 5.11205 1.41442 7.30913L5.70216 10.6381C6.22644 9.04393 7.23791 7.65457 8.59393 6.66592C9.94994 5.67727 11.5821 5.13922 13.2602 5.12765Z" fill="#E43E2B"/>
<path d="M25.9891 13.5556C26.0047 12.6441 25.9105 11.734 25.7086 10.845H13.2597V15.7664H20.5679C20.4292 16.6292 20.1175 17.4551 19.6515 18.1944C19.1855 18.9336 18.5747 19.571 17.856 20.0682L22.0405 23.3091C23.3446 22.0501 24.3701 20.5315 25.0509 18.8515C25.7317 17.1714 26.0526 15.3673 25.9929 13.5556H25.9891Z" fill="#3B7DED"/>
<path d="M5.71742 15.8826C5.42751 15.0385 5.27805 14.1525 5.275 13.26C5.28029 12.3689 5.42439 11.4841 5.70212 10.6374L1.41438 7.30844C0.484409 9.15477 0 11.1933 0 13.2607C0 15.328 0.484409 17.3665 1.41438 19.2129L5.71742 15.8826Z" fill="#F0B501"/>
<path d="M13.2601 26.5202C16.49 26.6116 19.6321 25.4623 22.0408 23.3086L17.8564 20.0676C16.4996 20.9772 14.8929 21.4407 13.2601 21.3936C11.5834 21.3836 9.95245 20.8459 8.59855 19.8568C7.24466 18.8677 6.23659 17.4774 5.71735 15.8831L1.42961 19.2134C2.5289 21.4095 4.21784 23.2562 6.3073 24.5467C8.39676 25.8372 10.8042 26.5206 13.2601 26.5202Z" fill="#2BA24C"/>
</svg>
