<svg width="18" height="18" viewBox="0 0 18 18" fill="none" xmlns="http://www.w3.org/2000/svg">
<g clip-path="url(#clip0_704_6844)">
<path d="M17.5322 15.3039L10.4741 8.24572L2.22788 -0.000497148H1.58343L1.45184 0.333873C1.10454 1.21643 0.956144 2.1191 1.02276 2.94418C1.0987 3.88468 1.45599 4.69893 2.05607 5.29901L8.49351 11.7364L9.3426 10.8874L15.294 17.5422C15.886 18.1342 16.905 18.1693 17.5322 17.5422C18.1494 16.925 18.1494 15.921 17.5322 15.3039Z" fill="white"/>
<path d="M5.51004 10.2465L0.468264 15.2883C-0.148796 15.9053 -0.148796 16.9094 0.468264 17.5265C1.05446 18.1127 2.06854 18.1644 2.70648 17.5265L7.74829 12.4847L5.51004 10.2465Z" fill="white"/>
<path d="M17.2357 2.99626L14.3757 5.85621L13.6296 5.11013L16.4896 2.25015L15.7435 1.50406L12.8836 4.36401L12.1375 3.61793L14.9975 0.75798L14.2514 0.0119316L10.521 3.74235C10.0646 4.19871 9.79215 4.80466 9.75362 5.44865C9.74388 5.61181 9.70689 5.7723 9.64555 5.92494L12.0688 8.34822C12.2215 8.2868 12.382 8.24985 12.5451 8.24012C13.1891 8.20169 13.7951 7.92912 14.2514 7.47276L17.9818 3.74238L17.2357 2.99626Z" fill="white"/>
</g>
<defs>
<clipPath id="clip0_704_6844">
<rect width="17.6789" height="17.6789" fill="white" transform="scale(1.01816)"/>
</clipPath>
</defs>
</svg>
