<svg width="229" height="241" viewBox="0 0 229 241" fill="none" xmlns="http://www.w3.org/2000/svg">
<path d="M144.815 91.7585L114.773 131.964L129.473 140.725L144.815 91.7585Z" fill="#00B6AA"/>
<path d="M181.234 161.775L174.991 240.841H134.81L143.837 204.533L130.519 204.436L115.278 241H77.7081L115.572 159.872" fill="#171766"/>
<path d="M144.815 91.7585L114.773 164.187C114.773 164.187 165.676 182.347 194.205 167.261L184.456 93.1071L144.815 91.7585Z" fill="#171766"/>
<path d="M177.265 74.2065L159.597 76.3836L158.581 87.8715C164.221 86.7347 169.871 85.6413 175.55 84.6395L177.265 74.2065Z" fill="#171766"/>
<path d="M178.378 92.7027L177.01 106.979L163.86 120.707L161.717 122.947L161.134 121.478L155.113 106.334L155.585 91.0072H172.694L178.378 92.7027Z" fill="white"/>
<path d="M158.586 87.8716L158.085 93.5361L165.589 101.378L173.999 94.1623L175.56 84.6444C169.871 85.6415 164.221 86.7349 158.586 87.8716Z" fill="#F2583E"/>
<path d="M187.655 63.6062C189.517 52.2906 181.854 41.6077 170.539 39.7453C159.223 37.8829 148.54 45.5462 146.678 56.8618C144.815 68.1774 152.479 78.8603 163.794 80.7227C175.11 82.5851 185.793 74.9218 187.655 63.6062Z" fill="#F2583E"/>
<path d="M176.204 71.1548C176.621 68.5895 174.88 66.1714 172.315 65.7538C169.75 65.3361 167.332 67.077 166.914 69.6423C166.496 72.2075 168.237 74.6256 170.803 75.0433C173.368 75.4609 175.786 73.72 176.204 71.1548Z" fill="#F6EF97"/>
<path d="M161.509 40.4506C159.467 40.6048 157.42 40.7589 155.373 40.913C154.824 40.9564 154.26 40.9997 153.764 41.2358C153.268 41.4718 152.844 41.9535 152.839 42.5026C152.834 43.0998 153.292 43.5911 153.769 43.9476C155.19 45.0169 157.054 45.4889 158.812 45.2192C158.133 46.1488 156.664 46.7172 156.784 47.8636C156.876 48.7402 157.892 49.1785 158.764 49.3086C160.281 49.535 161.851 49.3712 163.287 48.8317C163.051 49.7276 162.829 50.7295 163.282 51.5339C163.73 52.3383 164.713 52.6851 165.633 52.8007C169.134 53.239 172.443 51.3075 175.478 49.5061C175.863 49.2749 176.383 49.0533 176.725 49.3423C176.923 49.5061 176.976 49.7758 177.014 50.0311C177.564 53.634 176.725 57.2947 176.75 60.9361C176.759 62.7472 177.067 64.7221 178.402 65.9455C179.399 66.8607 180.805 67.1882 182.154 67.3135C183.527 67.4387 184.976 67.3761 186.176 66.6969C186.961 66.2538 187.587 65.5698 188.122 64.8425C189.88 62.4438 190.742 59.3033 190 56.4229C189.755 55.474 189.331 54.5444 188.632 53.8556" fill="#00B6AA"/>
<path d="M185.713 76.3833C190.02 76.3833 193.512 72.8919 193.512 68.5851C193.512 64.2782 190.02 60.7868 185.713 60.7868C181.407 60.7868 177.915 64.2782 177.915 68.5851C177.915 72.8919 181.407 76.3833 185.713 76.3833Z" fill="#F2583E"/>
<path d="M192.558 40.3399L191.363 45.1663L189.35 53.2728L161.461 40.3399L165.368 35.8507L170.521 29.9214C170.521 29.9214 184.567 30.9425 192.558 40.3399Z" fill="#171766"/>
<path d="M191.363 45.1661L189.35 53.2726L161.461 40.3397L165.368 35.8505L191.363 45.1661Z" fill="#00B6AA"/>
<path d="M154.8 34.8586L199.778 55.9847C199.778 55.9847 195.881 64.0094 170.521 50.1999C153.119 40.7254 154.8 34.8586 154.8 34.8586Z" fill="#171766"/>
<path d="M149.487 51.6784C149.487 51.6784 147.03 57.078 150.811 58.3014C154.593 59.5248 157.656 54.7948 157.656 54.7948C157.656 54.7948 153.09 58.311 150.72 56.3073C148.967 54.8285 149.487 51.6784 149.487 51.6784Z" fill="#171766"/>
<path d="M164.033 57.9692C164.033 57.9692 161.577 63.3687 165.358 64.5922C169.139 65.8156 172.203 61.0856 172.203 61.0856C172.203 61.0856 167.636 64.6018 165.267 62.5981C163.508 61.1193 164.033 57.9692 164.033 57.9692Z" fill="#171766"/>
<path d="M161.914 52.4011L152.839 60.681L157.377 64.0961L162.834 53.2729L161.914 52.4011Z" fill="#FFB459"/>
<path d="M181.764 71.7208L181.234 66.2683L189.779 63.3735V64.7944L182.684 67.0534L184.129 72.2459L181.764 71.7208Z" fill="#171766"/>
<path d="M165.589 101.373L160.845 105.611L154.241 90.2363L158.586 87.8712L165.589 101.373Z" fill="#00B6AA"/>
<path d="M168.73 106.979L165.589 101.373L174.837 89.0128L179.668 92.7892L168.73 106.979Z" fill="#00B6AA"/>
<path d="M166.745 101.372L163.86 120.707L161.717 122.947L161.134 121.477L164.785 101.372H166.745Z" fill="#00B6AA"/>
<path d="M153.345 73.9269C153.345 73.9269 143.398 75.0492 138.924 79.2205C137.19 80.8437 136.058 87.2789 134.791 96.7004C134.786 96.7148 134.786 96.7293 134.781 96.7437C132.782 111.579 130.422 133.784 124.767 156.254C115.505 193.03 92.505 206.189 92.505 206.189C76.6147 205.423 64.8812 201.724 56.2737 196.32C33.2594 181.874 32.6091 155.257 34.6948 140.041C31.6121 133.674 32.6814 124.43 32.9463 124.358C46.0141 120.933 59.3467 127.513 69.3511 134.883C72.8528 137.464 75.95 140.142 78.4787 142.517C82.4911 146.288 85.0969 149.304 85.6797 149.983V149.988C85.7616 150.084 85.8002 150.132 85.8002 150.132L77.9826 158.046L81.6481 166.288C81.6481 166.288 126.872 79.654 134.796 73.4019C147.011 68.5852 150.994 69.64 150.994 69.64L153.345 73.9269Z" fill="#F6EF97"/>
<path d="M121.655 104.445C123.581 102.519 123.581 99.3957 121.655 97.4695C119.728 95.5434 116.606 95.5434 114.679 97.4695C112.753 99.3957 112.753 102.519 114.679 104.445C116.606 106.371 119.728 106.371 121.655 104.445Z" fill="#FFB459"/>
<path d="M128.35 93.9009C130.276 91.9747 130.276 88.8518 128.35 86.9256C126.424 84.9994 123.301 84.9994 121.375 86.9256C119.449 88.8518 119.449 91.9747 121.375 93.9009C123.301 95.8271 126.424 95.8271 128.35 93.9009Z" fill="#FFB459"/>
<path d="M116.387 113.141C117.01 110.489 115.365 107.834 112.714 107.211C110.062 106.588 107.407 108.233 106.784 110.885C106.161 113.536 107.806 116.191 110.458 116.814C113.109 117.437 115.764 115.792 116.387 113.141Z" fill="#FFB459"/>
<path d="M109.814 124.222C110.442 121.572 108.804 118.913 106.153 118.285C103.503 117.656 100.844 119.295 100.215 121.945C99.5868 124.596 101.226 127.254 103.876 127.883C106.527 128.512 109.185 126.873 109.814 124.222Z" fill="#FFB459"/>
<path d="M103.241 135.282C103.869 132.632 102.23 129.974 99.58 129.345C96.9295 128.716 94.2711 130.355 93.6424 133.006C93.0137 135.656 94.6527 138.314 97.3032 138.943C99.9537 139.572 102.612 137.933 103.241 135.282Z" fill="#FFB459"/>
<path d="M96.6602 146.321C97.2832 143.67 95.6385 141.015 92.9866 140.392C90.3348 139.769 87.68 141.414 87.057 144.065C86.434 146.717 88.0788 149.372 90.7306 149.995C93.3825 150.618 96.0372 148.973 96.6602 146.321Z" fill="#FFB459"/>
<path d="M126.208 81.0363L139.083 86.4214L141.876 83.7288L128.168 78.0258" fill="#F2583E"/>
<path d="M134.781 96.7438C132.782 111.579 130.422 133.784 124.767 156.254C115.505 193.03 92.5051 206.189 92.5051 206.189C92.5051 206.189 79.288 202.1 74.0763 196.32L91.1371 199.089C91.1371 199.089 129.859 126.617 134.781 96.7438Z" fill="#FFB459"/>
<path d="M69.3511 134.882C64.7126 140.59 60.7243 146.813 57.8343 153.566C53.9135 162.728 53.138 174.057 53.7882 183.999C54.0628 188.189 54.9105 192.346 56.2785 196.32C33.2642 181.874 32.6139 155.257 34.6996 140.041C31.6121 133.673 32.6862 124.43 32.9463 124.358C46.0189 120.933 59.3467 127.513 69.3511 134.882Z" fill="#FFB459"/>
<path d="M85.6798 149.983L77.9827 158.046C40.7494 160.021 36.7467 131.838 36.7467 131.838L60.1993 133.871L78.474 142.517C82.4911 146.288 85.097 149.304 85.6798 149.983Z" fill="#FFB459"/>
<path d="M85.8002 150.132C46.5921 161.986 32.9463 124.358 32.9463 124.358C58.8699 117.562 85.8002 150.132 85.8002 150.132Z" fill="#171766"/>
<path d="M149.405 65.6904L152.184 76.475L154.694 75.5068L153.018 65.6904H149.405Z" fill="#171766"/>
<path d="M155.517 66.4899L151.404 68.171L152.753 72.4819L157.343 73.3297L155.517 66.4899Z" fill="#171766"/>
<path d="M48.9186 84.3215C34.3095 105.568 51.4329 127.629 63.6481 146.39C61.89 146.212 60.1367 145.889 58.605 145.316C52.7768 143.153 24.1655 118.824 28.6932 96.0213C30.326 87.7703 34.3817 80.261 37.3199 72.3809C40.2581 64.4959 41.5586 55.1081 36.9201 48.0901C35.2391 45.5421 32.903 43.5142 30.644 41.4671C24.7483 36.135 19.0694 30.3164 15.558 23.1877C12.0466 16.0541 10.958 7.35995 14.349 0.168585L29.04 0H57.8295C54.3133 6.90236 54.1303 15.2546 59.0337 23.1492C64.3321 30.8559 70.5938 37.1176 69.6305 46.7511C68.1855 61.6829 57.107 71.798 48.9186 84.3215Z" fill="#00B6AA"/>
<path d="M133.211 32.3009C119.724 37.1176 100.457 38.081 99.0125 55.4212C98.0491 66.9813 99.0125 80.4681 87.934 87.2115C79.2639 92.0282 69.1488 94.9183 64.8137 104.07C59.2264 117.335 61.2397 133.635 68.4504 146.558C66.9765 146.592 65.3099 146.558 63.6481 146.39C51.4329 127.629 34.3095 105.568 48.9186 84.3215C57.107 71.798 68.1855 61.6829 69.6305 46.7511C70.5938 37.1176 64.3321 30.8559 59.0337 23.1492C54.1303 15.2546 54.3133 6.90236 57.8295 0H151.428C152.199 13.4097 145.966 27.6624 133.211 32.3009Z" fill="#7BD6AA"/>
<path d="M208.906 0C206.589 7.2877 203.906 14.5176 199.658 20.8612C195.005 27.8021 188.228 33.6592 180.097 35.6052C175.107 36.7997 169.895 36.4818 164.78 36.8864C159.665 37.291 154.289 38.5964 150.734 42.2956C146.736 46.4476 145.812 52.7768 142.103 57.1841C134.343 66.4226 118.535 63.4362 109.412 71.3308C99.7108 79.7215 101.122 97.2881 90.0581 103.786C85.7183 106.334 66.8175 110.679 66.384 123.274C66.0275 133.688 73.5175 146.183 73.5175 146.183C73.5175 146.183 71.35 146.491 68.4503 146.558C61.2397 133.635 59.2263 117.335 64.8137 104.07C69.1488 94.9183 79.2639 92.0282 87.934 87.2115C99.0124 80.4681 98.0491 66.9813 99.0124 55.4212C100.457 38.081 119.724 37.1176 133.211 32.3009C145.966 27.6624 152.199 13.4097 151.428 0H208.906Z" fill="#00B6AA"/>
<path d="M211.695 158.143C209.869 168.528 201.536 178.368 189.254 185.025C174.688 192.919 154.569 196.334 133.177 190.867C129.257 189.866 125.293 188.565 121.314 186.937L137.272 143.119C140.277 143.765 143.447 144.391 146.65 144.935C161.273 147.425 176.692 148.249 181.234 142.026C190.564 129.252 181.234 105.616 181.234 105.616C181.234 105.616 176.937 100.352 184.456 93.1073C184.456 93.1073 208.988 120.567 211.94 146.727C212.379 150.59 212.35 154.429 211.695 158.143Z" fill="#00B6AA"/>
<path d="M128.761 140.273L126.208 123.424L123.101 122.061L120.818 132.869L106.594 121.618L104.215 125.028L111.589 135.311L100.082 131.68L97.3989 137.253L110.847 145.2L92.9483 144.94L91.8597 149.314L130.682 164.872L138.461 149.314L128.761 140.273Z" fill="#F1573D"/>
<path d="M92.9483 148.736L93.5022 145.2C93.5022 145.2 96.7968 146.193 96.4693 147.98C96.1466 149.766 92.9483 148.736 92.9483 148.736Z" fill="#171766"/>
<path d="M99.3305 136.395L100.91 132.932C100.91 132.932 104.918 135.369 104.427 137.045C103.945 138.722 99.3305 136.395 99.3305 136.395Z" fill="#171766"/>
<path d="M105.51 125.191L107.134 123.082C107.134 123.082 111.141 126.164 109.73 127.547C108.328 128.924 105.51 125.191 105.51 125.191Z" fill="#171766"/>
<path d="M123.698 123.674L126.294 124.488C126.294 124.488 126.945 129.305 125.538 128.982C124.132 128.655 123.698 123.674 123.698 123.674Z" fill="#171766"/>
<path d="M148.702 137.932L146.65 144.935L133.177 190.867L130.764 199.09L119.334 192.365L121.314 186.937L137.272 143.119L140.118 135.311L148.702 137.932Z" fill="white"/>
<path d="M211.695 158.143C209.869 168.527 201.536 178.368 189.254 185.025C186.609 179.168 186.108 172.337 188.026 166.191C190.872 157.049 198.892 149.882 208.135 147.382C209.354 147.05 210.65 146.814 211.941 146.727C212.379 150.59 212.35 154.429 211.695 158.143Z" fill="#FFB459"/>
<path d="M105.014 114.204L93.507 106.719L108.786 79.1435L119.334 81.0365L105.014 114.204Z" fill="white"/>
<path d="M108.092 84.3504L124.999 82.2262L127.157 84.8465L117.379 89.9811L132.07 100.612L129.435 103.829L117.538 99.5231L124.156 109.614L119.527 113.708L108.222 102.924L113.337 120.081L109.421 122.316L97.4759 106.806" fill="#F1573D"/>
<path d="M109.682 121.111L112.933 119.613C112.933 119.613 111.083 116.714 109.455 117.513C107.822 118.313 109.682 121.111 109.682 121.111Z" fill="#171766"/>
<path d="M119.826 111.618L122.73 109.157C122.73 109.157 119.296 105.963 117.817 106.888C116.333 107.813 119.826 111.618 119.826 111.618Z" fill="#171766"/>
<path d="M128.929 102.62L130.519 100.482C130.519 100.482 126.463 97.4664 125.514 99.1956C124.57 100.93 128.929 102.62 128.929 102.62Z" fill="#171766"/>
<path d="M125.442 84.7069L123.953 82.4286C123.953 82.4286 119.142 83.1126 119.835 84.3794C120.534 85.6462 125.442 84.7069 125.442 84.7069Z" fill="#171766"/>
<path d="M5.69336 186.744L21.7764 195.125L33.2594 171.258L28.1393 211.637L16.6562 204.484L0 233.134L5.69336 186.744Z" fill="#FFB459"/>
<path d="M45.8215 195.381L52.1603 221.025L37.3634 224.58L48.1143 237.532V226.357L64.1828 225.341L45.8215 195.381Z" fill="#F6EF97"/>
<path d="M84.808 131.964L104.142 118.125L99.8458 112.157L84.808 131.964Z" fill="#00B6AA"/>
<path d="M76.1668 127.547L86.2964 95.4914L79.3555 96.7437L76.1668 127.547Z" fill="#F1573D"/>
<path d="M28.1393 122.061L5.17315 108.709L11.984 98.9596L28.1393 122.061Z" fill="#00B6AA"/>
<path d="M21.8584 96.7438L6.65679 63.3735L19.8787 56.3315L21.8584 96.7438Z" fill="#F6EF97"/>
<path d="M23.0143 127.547L2.36499 136.795L5.99679 143.076L23.0143 127.547Z" fill="#F1573D"/>
<path d="M203.184 70.3963L212.234 82.8379L226.93 66.4899L216.377 98.9594L202.427 82.7271L186.869 90.4146L203.184 70.3963Z" fill="#FFB459"/>
<path d="M196.021 98.9596C196.021 98.9596 220.524 122.489 220.9 120.5C221.275 118.511 226.93 112.157 226.93 112.157L196.021 98.9596Z" fill="#171766"/>
<path d="M206.897 65.6904L228.813 41.5971L221.651 35.8508L206.897 65.6904Z" fill="#171766"/>
<path d="M185.506 193.536L217.855 229.738L228.813 215.038L185.506 193.536Z" fill="#FFB459"/>
<path d="M194.205 191.291L224.291 196.32V187.144L194.205 191.291Z" fill="#F6EF97"/>
<path d="M182.828 204.484L185.713 233.134L202.052 229.738L182.828 204.484Z" fill="#F6EF97"/>
<path d="M18.3998 166.447C18.3998 168.133 17.0319 169.501 15.346 169.501C13.6602 169.501 12.2922 168.133 12.2922 166.447C12.2922 164.761 13.6602 163.393 15.346 163.393C17.0319 163.398 18.3998 164.761 18.3998 166.447Z" fill="#7BD6AA"/>
<path d="M213.776 178.633C215.813 178.633 217.465 176.981 217.465 174.943C217.465 172.906 215.813 171.254 213.776 171.254C211.738 171.254 210.086 172.906 210.086 174.943C210.086 176.981 211.738 178.633 213.776 178.633Z" fill="#171766"/>
<path d="M213.776 132.484C216.276 132.484 218.303 130.457 218.303 127.956C218.303 125.456 216.276 123.429 213.776 123.429C211.275 123.429 209.248 125.456 209.248 127.956C209.248 130.457 211.275 132.484 213.776 132.484Z" fill="#7BD6AA"/>
<path d="M205.65 32.2479C207.637 32.2479 209.248 30.637 209.248 28.6498C209.248 26.6627 207.637 25.0517 205.65 25.0517C203.663 25.0517 202.052 26.6627 202.052 28.6498C202.052 30.637 203.663 32.2479 205.65 32.2479Z" fill="#FFB459"/>
<path d="M16.5193 41.0073C17.1539 38.32 15.4898 35.6271 12.8025 34.9926C10.1152 34.358 7.42234 36.0221 6.78779 38.7094C6.15325 41.3967 7.81732 44.0896 10.5046 44.7241C13.1919 45.3586 15.8848 43.6946 16.5193 41.0073Z" fill="#FFB459"/>
<path d="M111.632 74.2063C113.763 74.2063 115.491 72.4789 115.491 70.3481C115.491 68.2173 113.763 66.4899 111.632 66.4899C109.501 66.4899 107.774 68.2173 107.774 70.3481C107.774 72.4789 109.501 74.2063 111.632 74.2063Z" fill="#FFB459"/>
<path d="M24.5745 148.188C25.7292 145.456 24.4505 142.305 21.7184 141.15C18.9863 139.996 15.8355 141.274 14.6807 144.007C13.526 146.739 14.8048 149.89 17.5368 151.044C20.2689 152.199 23.4198 150.92 24.5745 148.188Z" fill="#171766"/>
<path d="M74.5339 217.995C76.2896 217.995 77.7129 216.572 77.7129 214.816C77.7129 213.061 76.2896 211.637 74.5339 211.637C72.7782 211.637 71.3548 213.061 71.3548 214.816C71.3548 216.572 72.7782 217.995 74.5339 217.995Z" fill="#FFB459"/>
<path d="M28.7751 225.215C30.8607 225.215 32.5514 223.525 32.5514 221.439C32.5514 219.353 30.8607 217.663 28.7751 217.663C26.6895 217.663 24.9988 219.353 24.9988 221.439C24.9988 223.525 26.6895 225.215 28.7751 225.215Z" fill="#7BD6AA"/>
</svg>
