<svg width="22" height="20" viewBox="0 0 22 20" fill="none" xmlns="http://www.w3.org/2000/svg">
<path opacity="0.3" d="M20.6097 17.8306H1.08472C0.485645 17.8306 0 18.3163 0 18.9153V18.9154C0 19.5144 0.485645 20.0001 1.08472 20.0001H20.6097C21.2088 20.0001 21.6945 19.5144 21.6945 18.9153C21.6945 18.3163 21.2088 17.8306 20.6097 17.8306Z" fill="#00F8FF"/>
<path d="M6.01836 5.18496C5.67605 5.59571 5.08547 5.69576 4.62696 5.42072L1.6428 3.63018C0.919812 3.19638 0 3.71717 0 4.56032V14.5764C0 15.1755 0.485649 15.6611 1.08472 15.6611H20.6097C21.2088 15.6611 21.6944 15.1755 21.6944 14.5764V4.56032C21.6944 3.71717 20.7746 3.19638 20.0516 3.63018L17.0674 5.42072C16.6089 5.69576 16.0184 5.59571 15.676 5.18496L11.6805 0.390298C11.2468 -0.130099 10.4476 -0.130099 10.0139 0.390298L6.01836 5.18496Z" fill="#00F8FF"/>
</svg>
